# Alias OBJ Model File
# Exported from SketchUp, (c) 2000-2012 Trimble Navigation Limited
# File units = inches

mtllib c41acbaa-5046-4bbb-b457-899cd25033b7.mtl

g Mesh1 Model

usemtl Katherine_Glasses1
v 3.375 0 -39.832
vt -0.0405419 0.0381005
vn 0 0 -1
v 3.375 39.832 -39.832
vt -0.0405418 0.909174
v 93.0625 39.832 -39.832
vt -0.921615 0.909174
v 93.0625 0 -39.832
vt -0.921615 0.0381005
f 1/1/1 2/2/1 3/3/1 4/4/1 

vt -0.660285 0.228353
vn -0 -0 1
vt -0.660285 0.574718
vt -0.309943 0.574718
vt -0.309943 0.228353
f 4/5/2 3/6/2 2/7/2 1/8/2 

vt 0.036445 0.898967
vn 0 1 -0
v 3.375 39.832 -0
vt 0.0390261 0.0822757
v 93.0625 39.832 -0
vt 0.865093 0.095214
vt 0.862511 0.911904
f 2/9/3 5/10/3 6/11/3 3/12/3 

vt 0.419458 0.556518
vn -0 -1 0
vt 0.419458 0.210152
vt 0.0691165 0.210152
vt 0.0691165 0.556518
f 3/13/4 6/14/4 5/15/4 2/16/4 

vt 0.0348459 0.915483
vn 0 0 1
v 3.375 0 -0
vt 0.0348457 0
v 93.0625 0 -0
vt 0.960838 0
vt 0.960839 0.915482
f 5/17/5 7/18/5 8/19/5 6/20/5 

vt 0.955033 0.929885
vn -0 -0 -1
vt 0.955033 0.120319
vt 0.136173 0.120319
vt 0.136173 0.929885
f 6/21/6 8/22/6 7/23/6 5/24/6 

vt -0.0131836 0
vn 0 -1 -0
vt -0.0131836 0.346366
vt -0.363525 0.346366
vt -0.363525 0
f 7/25/7 1/26/7 4/27/7 8/28/7 

vt -0.695976 0.22195
vn -0 1 0
vt -0.695976 0.568316
vt -0.345634 0.568316
vt -0.345634 0.22195
f 8/29/8 4/30/8 1/31/8 7/32/8 

usemtl Katherine_Sleeve
vt -0.922491 0.85137
vn -1 0 -0
vt -0.922491 0.0272543
vt -0.0468677 0.0272543
vt -0.0468676 0.85137
f 2/33/9 1/34/9 7/35/9 5/36/9 

usemtl Front_Darker
vt -1.08382 2.7579
vn 1 -0 0
vt -1.08382 2.07665
vt -1.88124 2.07665
vt -1.88124 2.7579
f 5/37/10 7/38/10 1/39/10 2/40/10 

